<?xml version="1.0" encoding="utf-8"?>
<!-- Generator: Adobe Illustrator 22.1.0, SVG Export Plug-In . SVG Version: 6.00 Build 0)  -->
<svg version="1.1" id="图层_1" xmlns="http://www.w3.org/2000/svg" xmlns:xlink="http://www.w3.org/1999/xlink" x="0px" y="0px"
	 viewBox="0 0 40 40" style="enable-background:new 0 0 40 40;" xml:space="preserve">
<style type="text/css">

</style>
<g>
	<g>
		<defs>
			<rect id="SVGID_1_" width="40" height="40"/>
		</defs>
		<clipPath id="SVGID_2_">
			<use xlink:href="#SVGID_1_"  style="overflow:visible;"/>
		</clipPath>
		<path class="st0" d="M32.4,15.9c-0.6-1-0.6-2.2,0-3.2l4.4-7c0.6-0.9,0.6-2.1,0.1-3.1c-0.5-1-1.5-1.6-2.6-1.6H8.4
			C5.3,1,2.7,3.6,2.7,6.7v30.9c0,0.7,0.6,1.3,1.3,1.3c0.7,0,1.3-0.6,1.3-1.3V27.5h29c1.1,0,2.1-0.6,2.6-1.6c0.5-1,0.5-2.2-0.1-3.1
			L32.4,15.9z M34.6,24.7c-0.1,0.1-0.2,0.2-0.4,0.2h-29V6.7c0-1.8,1.4-3.2,3.2-3.2h25.8c0.2,0,0.4,0.1,0.5,0.3
			c0.1,0.2,0.1,0.4,0,0.5l-4.5,7c-1.1,1.8-1.1,4.1,0,5.9l4.4,7C34.7,24.4,34.7,24.6,34.6,24.7L34.6,24.7z M34.6,24.7"/>
	</g>
</g>
</svg>
