<?xml version="1.0" standalone="no"?><!DOCTYPE svg PUBLIC "-//W3C//DTD SVG 1.1//EN" "http://www.w3.org/Graphics/SVG/1.1/DTD/svg11.dtd"><svg t="1544681466193" class="icon" style="" viewBox="0 0 1024 1024" version="1.1" xmlns="http://www.w3.org/2000/svg" p-id="3272" xmlns:xlink="http://www.w3.org/1999/xlink" width="200" height="200"><defs><style type="text/css"></style></defs><path d="M855.905072 186.527231 168.094928 186.527231c-56.456826 0-102.388948 45.931099-102.388948 102.387925l0 442.434621c0 56.456826 45.931099 102.387925 102.388948 102.387925l687.810145 0c56.456826 0 102.387925-45.931099 102.387925-102.387925L958.292997 288.915156C958.292997 232.458329 912.361899 186.527231 855.905072 186.527231zM168.094928 225.517243l687.810145 0c34.95614 0 63.396889 28.440749 63.396889 63.397912l0 223.084844L104.697015 512 104.697015 288.915156C104.697015 253.957992 133.136741 225.517243 168.094928 225.517243zM855.905072 794.747689 168.094928 794.747689c-34.958186 0-63.397912-28.440749-63.397912-63.396889l0-28.077475 814.604946 0 0 28.077475C919.301961 766.30694 890.861212 794.747689 855.905072 794.747689z" p-id="3273"></path></svg>