<?xml version="1.0" encoding="utf-8"?>
<!-- Generator: Adobe Illustrator 22.1.0, SVG Export Plug-In . SVG Version: 6.00 Build 0)  -->
<svg version="1.1" id="图层_1" xmlns="http://www.w3.org/2000/svg" xmlns:xlink="http://www.w3.org/1999/xlink" x="0px" y="0px"
	 viewBox="0 0 818.9 761.8" style="enable-background:new 0 0 818.9 761.8;" xml:space="preserve">
<style type="text/css">
	.st1{fill:none;}
</style>
<path class="st0" d="M588.6,0c-70.5,0-135.8,35.5-179.2,93.8C366.4,35.5,300.6,0,230.1,0C103.2,0,0,113,0,251.6
	c0,82.6,36.9,141,66.7,187.6c86.4,135.8,303.9,304.3,313.2,311.3c8.4,6.7,18.7,10.3,29.4,10.3c10.3,0,20.5-3.3,29.4-10.3
	c9.3-7,226.4-176,313.2-311.3c29.9-46.7,66.7-105,66.7-187.6C818.7,113,715.6,0,588.6,0L588.6,0z"/>
<path class="st0" d="M692.7,437.8"/>
<rect y="0" class="st1" width="818.9" height="761.8"/>
</svg>
