<?xml version="1.0" encoding="utf-8"?>
<!-- Generator: Adobe Illustrator 22.1.0, SVG Export Plug-In . SVG Version: 6.00 Build 0)  -->
<svg version="1.1" id="图层_1" xmlns="http://www.w3.org/2000/svg" xmlns:xlink="http://www.w3.org/1999/xlink" x="0px" y="0px"
	 viewBox="0 0 818.9 761.8" style="enable-background:new 0 0 818.9 761.8;" xml:space="preserve">
<style type="text/css">
	.st0{clip-path:url(#SVGID_2_);}
</style>
<g>
	<g>
		<defs>
			<rect id="SVGID_1_" y="0" width="818.9" height="761.8"/>
		</defs>
		<clipPath id="SVGID_2_">
			<use xlink:href="#SVGID_1_"  style="overflow:visible;"/>
		</clipPath>
		<path class="st0" d="M588.6,0c-70.5,0-135.8,35.5-179.2,93.8C366.4,35.5,300.6,0,230.1,0C103.2,0,0,113,0,251.6
			c0,82.6,36.9,141,66.7,187.6c86.4,135.8,303.9,304.3,313.2,311.3c8.4,6.7,18.7,10.3,29.4,10.3c10.3,0,20.5-3.3,29.4-10.3
			c9.3-7,226.4-176,313.2-311.3c29.9-46.7,66.7-105,66.7-187.6C818.7,113,715.6,0,588.6,0L588.6,0z M692.7,437.8
			c-79.8,112-248.8,239.9-257.2,246c-7.9,6.1-17.3,9.3-26.1,9.3c-9.3,0-18.2-2.8-26.1-9.3c-8.4-6.1-174.1-135.4-257.2-250.6
			c-26.6-42-69.1-94.3-69.1-168C56.9,141,126,53.7,239.5,53.7c63,0,131.6,60.2,169.9,112.5c38.7-52.3,106.9-112.5,169.9-112.5
			c113.9,0,187.6,87.3,187.6,211.4C766.9,338.9,719.7,396.3,692.7,437.8L692.7,437.8z M692.7,437.8"/>
	</g>
</g>
</svg>
