<?xml version="1.0" encoding="utf-8"?>
<!-- Generator: Adobe Illustrator 22.1.0, SVG Export Plug-In . SVG Version: 6.00 Build 0)  -->
<svg version="1.1" id="隔离模式" xmlns="http://www.w3.org/2000/svg" xmlns:xlink="http://www.w3.org/1999/xlink" x="0px"
	 y="0px" viewBox="0 0 40 40" style="enable-background:new 0 0 40 40;" xml:space="preserve">
<style type="text/css">

</style>
<g>
	<defs>
		<rect id="SVGID_1_" y="0" width="40" height="40"/>
	</defs>
	<clipPath id="SVGID_2_">
		<use xlink:href="#SVGID_1_"  style="overflow:visible;"/>
	</clipPath>
	<path class="st0" d="M38.1,16.8L38.1,16.8L22.4,1c-0.6-0.6-1.5-1-2.4-1c-0.9,0-1.8,0.3-2.4,1L2,16.9c-0.2,0.2-0.4,0.5-0.4,0.9
		c0,0.3,0.1,0.6,0.4,0.9c0.3,0.3,0.7,0.4,1.2,0.3v16.5c0,2,1.3,3.8,3.2,4.3C6.7,39.9,7.2,40,7.7,40h5.8H17c-0.6,0-1.2-0.5-1.3-1.1
		v-7.8c0-2.4,1.9-4.3,4.3-4.3c2.4,0,4.3,1.9,4.3,4.3l0,7.6c0,0.3-0.1,0.7-0.4,0.9c-0.2,0.2-0.5,0.4-0.9,0.4h3.3h6
		c0.4,0,0.7-0.1,1.1-0.1c2-0.5,3.5-2.3,3.5-4.4V18.8h0.3c0.5,0,0.9-0.3,1.1-0.7S38.4,17.1,38.1,16.8z M17.5,19.8
		c-0.2,0.4-0.7,0.6-1.1,0.6H10c-0.7,0-1.3-0.5-1.3-1.2c0-0.7,0.6-1.2,1.3-1.2h6.4c0.5,0,0.9,0.2,1.1,0.6
		C17.7,18.9,17.7,19.4,17.5,19.8z M20,2.4c0.2,0,0.5,0.1,0.7,0.3C20.5,2.5,20.3,2.4,20,2.4z"/>
</g>
</svg>
