<?xml version="1.0" encoding="utf-8"?>
<!-- Generator: Adobe Illustrator 22.1.0, SVG Export Plug-In . SVG Version: 6.00 Build 0)  -->
<svg version="1.1" id="图层_1" xmlns="http://www.w3.org/2000/svg" xmlns:xlink="http://www.w3.org/1999/xlink" x="0px" y="0px"
	 viewBox="0 0 40 40" style="enable-background:new 0 0 40 40;" xml:space="preserve">
<style type="text/css">

</style>
<g>
	<g>
		<defs>
			<rect id="SVGID_1_" width="40" height="40"/>
		</defs>
		<clipPath id="SVGID_2_">
			<use xlink:href="#SVGID_1_"  style="overflow:visible;"/>
		</clipPath>
		<path class="st0" d="M38.1,16.9L22.4,1c-0.6-0.6-1.5-1-2.4-1c-0.9,0-1.8,0.3-2.4,1L1.9,16.9c-0.2,0.2-0.4,0.5-0.4,0.9
			c0,0.3,0.1,0.6,0.4,0.9c0.3,0.3,0.7,0.4,1.2,0.3v16.5c0,2.5,2.1,4.6,4.6,4.6h24.6c2.5,0,4.6-2.1,4.6-4.6V18.8h0.3
			c0.5,0,0.9-0.3,1.1-0.7C38.5,17.6,38.4,17.1,38.1,16.9L38.1,16.9z M24.3,36.2c0,0.3-0.1,0.7-0.4,0.9c-0.2,0.2-0.6,0.4-0.9,0.4
			h-5.9c-0.7,0-1.2-0.5-1.3-1.1V31c0-2.4,1.9-4.3,4.3-4.3c2.4,0,4.3,1.9,4.3,4.3L24.3,36.2z M34.5,35.3c0,0.6-0.2,1.1-0.6,1.5
			c-0.4,0.4-1,0.6-1.5,0.6h-5.9c0.2-0.4,0.2-0.9,0.2-1.3V31c0-3.7-3-6.7-6.7-6.7c-3.7,0-6.7,3-6.7,6.7v5.3c0,0.4,0.1,0.9,0.2,1.3
			H7.7c-0.6,0-1.1-0.2-1.5-0.6c-0.4-0.4-0.6-1-0.6-1.5V16.7L19.4,2.7c0.4-0.4,1-0.4,1.3,0l13.8,13.9L34.5,35.3z M34.5,35.3"/>
	</g>
	<path class="st1" d="M16.2,17.9h-6.1c-0.7,0-1.2,0.5-1.2,1.2c0,0.7,0.5,1.2,1.2,1.2h6.1c0.4,0,0.8-0.2,1-0.6c0.2-0.4,0.2-0.8,0-1.2
		C17,18.2,16.6,17.9,16.2,17.9L16.2,17.9z M16.2,17.9"/>
</g>
</svg>
