<?xml version="1.0" encoding="utf-8"?>
<!-- Generator: Adobe Illustrator 22.1.0, SVG Export Plug-In . SVG Version: 6.00 Build 0)  -->
<svg version="1.1" id="图层_1" xmlns="http://www.w3.org/2000/svg" xmlns:xlink="http://www.w3.org/1999/xlink" x="0px" y="0px"
	 viewBox="0 0 40 40" style="enable-background:new 0 0 40 40;" xml:space="preserve">
<style type="text/css">

</style>
<g>
	<g>
		<defs>
			<rect id="SVGID_1_" x="0" width="40" height="40"/>
		</defs>
		<clipPath id="SVGID_2_">
			<use xlink:href="#SVGID_1_"  style="overflow:visible;"/>
		</clipPath>
		<path class="st0" d="M35.9,34c-1.1-5.9-5.2-10.9-10.8-13.1c4.5-2.3,6.9-7.5,5.7-12.4c-1.2-5-5.6-8.4-10.7-8.4
			c-5.1,0-9.5,3.5-10.7,8.4s1.1,10.1,5.7,12.4C9.3,23.2,5.2,28.1,4.1,34c-0.3,1.5,0.1,3,1,4.2c0.8,1.1,2.1,1.7,3.5,1.7h22.7
			c1.4,0,2.6-0.6,3.5-1.7C35.8,37.1,36.2,35.5,35.9,34L35.9,34z M11.3,11.2c0-4.7,3.8-8.6,8.6-8.6c4.7,0,8.6,3.8,8.6,8.6
			s-3.8,8.6-8.6,8.6C15.2,19.7,11.4,15.9,11.3,11.2L11.3,11.2z M32.9,36.7c-0.4,0.5-1,0.8-1.6,0.8H8.6c-0.6,0-1.2-0.3-1.6-0.8
			c-0.5-0.6-0.7-1.4-0.5-2.2c1.1-6.7,6.7-11.7,13.5-12.1c6.8,0.3,12.4,5.4,13.5,12.1C33.6,35.3,33.4,36.1,32.9,36.7L32.9,36.7z
			 M32.9,36.7"/>
	</g>
</g>
</svg>
