<?xml version="1.0" standalone="no"?><!DOCTYPE svg PUBLIC "-//W3C//DTD SVG 1.1//EN" "http://www.w3.org/Graphics/SVG/1.1/DTD/svg11.dtd"><svg t="1541658126830" class="icon" style="" viewBox="0 0 1024 1024" version="1.1" xmlns="http://www.w3.org/2000/svg" p-id="2911" xmlns:xlink="http://www.w3.org/1999/xlink" width="200" height="200"><defs><style type="text/css">.icon{fill: #0BA194}</style></defs><path d="M76.90919 337.07408c-46.905702 29.760859-76.828305 85.238983-76.828305 153.65661C0.080885 588.747433 59.764347 669.781077 157.942834 669.781077c21.350182 0 38.333281-17.144843 38.33328-38.33328V354.380667c0-17.144843-12.77776-34.127942-29.922603-38.333281 59.683462-140.717106 191.989891-238.895593 345.484758-238.895593S797.639564 175.33028 857.323027 316.047386c-17.144843 4.205339-29.922603 17.144843-29.922604 38.333281v277.228873c0 21.350182 17.144843 38.333281 38.333281 38.333281 8.572421 0 17.144843 0 25.555521-4.205339-12.77776 72.622966-42.700363 127.939346-76.828306 166.272627-21.350182 25.55552-38.333281 42.700363-55.478123 51.272785-6.469752 3.234876-12.130785 7.440215-17.144843 12.77776-4.205339 0-4.205339 0-4.205339 4.205339h-72.299478c-12.77776-42.700363-59.683462-72.622966-115.161586-72.622967-63.888801 0-119.366925 42.700363-119.366925 98.178487s51.272785 98.178487 119.366925 98.178487c55.478124 0 98.178487-29.922603 115.161586-72.622966h76.828305c12.77776 0 17.144843-4.205339 25.55552-8.572422 8.410678-4.205339 17.144843-8.410678 25.555521-17.144843 21.350182-12.77776 42.700363-34.127942 68.255883-59.683462 42.700363-51.272785 81.033644-123.734007 89.606066-221.75075 46.905702-29.922603 72.622966-85.400727 72.622966-149.289528 0-68.255884-29.922603-123.734007-76.828305-153.65661C891.450968 140.87885 716.60592 0 512.000013 0 307.394105 0 132.387313 140.87885 76.90919 337.07408" p-id="2912"></path></svg>