<?xml version="1.0" standalone="no"?><!DOCTYPE svg PUBLIC "-//W3C//DTD SVG 1.1//EN" "http://www.w3.org/Graphics/SVG/1.1/DTD/svg11.dtd"><svg t="1541658114086" class="icon" style="" viewBox="0 0 1024 1024" version="1.1" xmlns="http://www.w3.org/2000/svg" p-id="2690" xmlns:xlink="http://www.w3.org/1999/xlink" width="200" height="200"><defs><style type="text/css">.icon{fill: #108EE9}</style></defs><path d="M585.510353 335.668697H978.085262v147.176614H585.510353v-147.176614zM459.693057 46.772229C430.226553 1.247259 359.756395-12.628502 314.231425 16.526188 268.706456 45.992692 249.685749 115.995128 284.297199 169.939099c29.154689 45.52497 169.783191 182.411693 215.464068 153.101096 45.369062-29.466504-10.757613-230.898904-40.06821-276.267966zM446.440926 240.409257c-22.762485 14.655298-100.560292-83.878197-115.371498-106.484775-14.655298-22.762485-9.354446-51.137637 13.563946-65.948843 22.762485-14.655298 48.487211-0.779537 63.298416 22.138856 14.811206 22.606577 61.27162 135.639464 38.509136 150.294762z m139.069427 291.702801h343.308161v490.484775H585.510353V532.112058zM45.758831 335.668697h392.574908v147.176614H45.758831v-147.176614z m48.954933 196.443361h343.619975v490.484775H94.713764V532.112058z" p-id="2691"></path><path d="M747.65408 92.609013c-33.36419-34.767357-96.974421-37.261876-131.741778-3.897685-34.767357 33.36419-124.881851 195.35201-91.673569 230.275274s182.879415-54.411693 217.80268-87.775883c40.691839-39.288672 38.82095-103.678441 5.612667-138.601706z m-43.342265 121.451888c-21.82704 10.28989-126.285018 48.175396-137.042631 26.504263-10.28989-21.82704 77.6419-85.125457 99.46894-95.571254 21.82704-10.28989 47.707674-8.886724 57.997564 12.940317 10.757613 21.671133 1.403167 45.680877-20.423873 56.126674z" p-id="2692"></path></svg>