<?xml version="1.0" encoding="utf-8"?>
<!-- Generator: Adobe Illustrator 22.1.0, SVG Export Plug-In . SVG Version: 6.00 Build 0)  -->
<svg version="1.1" id="图层_1" xmlns="http://www.w3.org/2000/svg" xmlns:xlink="http://www.w3.org/1999/xlink" x="0px" y="0px"
	 viewBox="0 0 40 40" style="enable-background:new 0 0 40 40;" xml:space="preserve">
<style type="text/css">

</style>
<g>
	<g>
		<defs>
			<rect id="SVGID_1_" width="40" height="40"/>
		</defs>
		<clipPath id="SVGID_2_">
			<use xlink:href="#SVGID_1_"  style="overflow:visible;"/>
		</clipPath>
		<path class="st0" d="M27.4,19.3c2.9-2.7,4.3-6.8,3.3-10.8c-1.2-5-5.6-8.4-10.7-8.4S10.4,3.5,9.2,8.5c-1,4,0.4,8.1,3.3,10.8
			c2.3-1.1,4.8-1.8,7.4-2C22.6,17.5,25.1,18.2,27.4,19.3z"/>
		<path class="st0" d="M35.9,34c-0.7-3.8-2.6-7.2-5.4-9.7c-0.2-0.2-0.4-0.4-0.6-0.5c0,0,0,0,0,0c-1.4-1.2-3-2.2-4.8-2.8
			c-1.6-0.6-3.3-1-5.1-1.1c-1.8,0.1-3.5,0.5-5.1,1.1c-3,1.1-5.6,3.1-7.5,5.7c-1.6,2.2-2.8,4.7-3.3,7.4c-0.3,1.5,0.1,3,1,4.2
			c0,0,0,0,0,0c0.8,1,2.1,1.7,3.5,1.7h22.7c1.3,0,2.6-0.6,3.4-1.7c0,0,0,0,0,0C35.8,37.1,36.2,35.5,35.9,34z"/>
		<path class="st0" d="M32.9,36.7"/>
	</g>
</g>
</svg>
