<?xml version="1.0" standalone="no"?><!DOCTYPE svg PUBLIC "-//W3C//DTD SVG 1.1//EN" "http://www.w3.org/Graphics/SVG/1.1/DTD/svg11.dtd"><svg t="1541658137691" class="icon" style="" viewBox="0 0 1089 1024" version="1.1" xmlns="http://www.w3.org/2000/svg" p-id="3133" xmlns:xlink="http://www.w3.org/1999/xlink" width="212.6953125" height="200"><defs><style type="text/css">.icon{fill: #E8541E}</style></defs><path d="M831.408503 656.167591c12.303142 57.099199 23.028959 108.83549 32.492914 155.208872 4.25878 19.401109 8.359827 39.117683 11.829945 58.676525 3.62785 19.401109 6.940234 37.224892 10.410351 53.155884 3.154652 15.930992 5.993839 29.495995 8.202095 40.69501 2.050524 11.199014 3.62785 18.296981 4.416512 21.136167 2.050524 14.511399-1.104128 23.975354-9.77942 28.707332s-18.454713 6.940234-29.338263 6.940235c-3.62785 0-8.833025-1.261861-15.615527-3.785583s-12.14541-4.574245-15.773259-5.993838L545.123845 846.077634c-51.420826 30.442391-97.951941 57.414664-139.908811 81.232286-17.981516 10.094886-35.805299 20.189772-53.629082 30.442391s-33.912508 19.558842-48.266174 28.234134c-14.511399 8.675293-26.972274 15.930992-37.382625 21.767098-10.410351 5.836106-17.508318 9.463956-21.136167 10.725816-7.255699 3.62785-14.511399 4.88971-22.240296 3.785582-7.571165-1.104128-14.511399-3.785582-20.66297-8.202094-6.151571-4.416513-10.568084-9.621688-13.565003-15.77326-2.839187-6.151571-3.62785-12.460875-2.050524-18.927911 0.788663-2.839187 2.523722-9.937153 5.520641-21.136168 2.839187-11.199014 6.151571-24.606285 9.779421-40.064079 3.943315-17.192853 8.202095-34.385705 12.460875-51.578558 4.88971-19.085644 9.779421-38.32902 14.511399-57.414664 12.303142-50.632163 24.606285-101.264325 36.909427-151.738755-42.745533-36.909427-80.916821-69.717807-114.987061-98.740604-14.353666-12.14541-28.5496-24.290819-42.903266-36.278497-12.77634-10.725816-25.394948-21.609365-38.013555-32.492914-11.199014-9.779421-20.347505-17.823783-27.603204-23.817622-7.255699-6.151571-11.199014-9.621688-11.987677-10.410351-8.675293-7.88663-16.088725-16.877388-22.240296-26.656808S-0.788663 409.316081 0.788663 399.221195c1.577326-10.252619 5.520641-18.139248 11.987677-23.817621 6.467036-5.836106 13.722736-9.463956 21.767098-10.725817l335.181762-30.44239 124.766482-290.701171c4.416513-11.514479 10.410351-21.609365 18.454714-29.81146 7.88663-8.359827 18.770179-12.460875 32.492914-12.460875 7.255699 0 13.565003 1.735059 18.927911 4.88971 5.520641 3.154652 9.937153 6.940234 13.565003 11.356747s6.624769 8.675293 9.306223 13.091805c2.523722 4.416513 4.574245 7.88663 5.993839 10.725817l121.61183 290.70117 335.181762 31.388786c14.511399 3.62785 24.606285 7.88663 30.442391 13.091806 5.836106 5.047443 8.675293 13.091805 8.675292 23.817621 0 10.252619-2.996919 18.927911-9.306223 26.656809-6.151571 7.571165-14.038201 16.877388-23.186691 27.603204L831.408503 656.167591" p-id="3134"></path></svg>