<?xml version="1.0" standalone="no"?><!DOCTYPE svg PUBLIC "-//W3C//DTD SVG 1.1//EN" "http://www.w3.org/Graphics/SVG/1.1/DTD/svg11.dtd"><svg t="1541658102708" class="icon" style="" viewBox="0 0 1200 1024" version="1.1" xmlns="http://www.w3.org/2000/svg" p-id="2580" xmlns:xlink="http://www.w3.org/1999/xlink" width="234.375" height="200"><defs><style type="text/css">.icon{fill: #F49C2E}</style></defs><path d="M0 459.01555v512.09151c0 13.543521 5.307596 26.35496 14.824665 36.055049s22.511528 15.007685 36.055049 15.007685h55.638248V408.135836H50.696693c-13.3605 0-26.35496 5.307596-36.055049 14.824664-9.334048 9.700089-14.641644 22.694549-14.641644 36.05505z m1114.412154-119.695443l-105.785881-173.869526c-15.190706-25.805898-31.662556-40.264522-56.919392-33.858803L65.155317 364.210903l1049.256837-24.890796zM668.208043 19.76622c-8.968007-13.17748-29.100268-23.792672-46.12118-15.190706L4.941555 334.561573l735.742627-220.905809-72.476139-93.889544z m480.978016 388.552636H179.909205v614.033959h969.276854c13.543521 0 26.35496-5.307596 36.055049-14.824665 9.517069-9.517069 15.007685-22.511528 14.824665-36.055049V459.19857c0-13.543521-5.307596-26.35496-14.824665-36.055049-9.700089-9.517069-22.694549-14.824665-36.055049-14.824665z m-158.312779 441.811618c0 7.137802-5.856658 12.628418-12.811439 12.628418H345.176765c-3.29437 0-6.771761-1.464164-8.968007-3.660411-2.379267-2.379267-3.660411-5.673637-3.660411-8.968007v-20.315282c0-7.137802 5.856658-12.811439 12.811439-12.811439h632.885075c7.137802 0 12.628418 5.856658 12.811439 12.811439l-0.18302 20.315282z m0-219.075604c0 7.137802-5.856658 12.628418-12.811439 12.628419H345.176765c-7.137802 0-12.811439-5.673637-12.811439-12.628419v-20.315281c0-3.29437 1.464164-6.771761 3.660411-8.968007 2.379267-2.379267 5.673637-3.660411 8.968007-3.660411h632.885076c7.137802 0 12.628418 5.673637 12.811439 12.628418l0.183021 20.315281z" p-id="2581"></path></svg>