<?xml version="1.0" standalone="no"?><!DOCTYPE svg PUBLIC "-//W3C//DTD SVG 1.1//EN" "http://www.w3.org/Graphics/SVG/1.1/DTD/svg11.dtd"><svg t="1541658150194" class="icon" style="" viewBox="0 0 1026 1024" version="1.1" xmlns="http://www.w3.org/2000/svg" p-id="3464" xmlns:xlink="http://www.w3.org/1999/xlink" width="200.390625" height="200"><defs><style type="text/css">.icon{fill: #108EE9}</style></defs><path d="M428.035285 451.028067c46.806736 32.230954 80.064154 76.163593 85.401764 94.845229 4.516439-18.476343 41.469126-63.640738 84.785886-95.666399 47.217322-35.105052 120.917402-64.051323 120.301524-147.194868-1.026464-151.506014-154.585405-175.319968-205.497995-50.502005-53.17081-130.155573-204.266239-99.772253-205.292703 51.323176-0.410585 82.938252 72.263031 114.142743 120.301524 147.194867z m529.655172-41.469126H923.817161v-68.157177h33.873296v68.157177z m-102.441058 21.145149c0 25.866881-17.44988 59.124298-38.595029 73.905373L552.647955 689.78348c-21.145148 14.781075-56.044908 14.781075-76.574178 0.410586l-267.291099-185.995189c-21.145148-14.575782-37.97915-47.217322-37.97915-73.289494V115.374499c0-25.866881 21.145148-47.012029 47.012029-47.012029h590.421813c26.072173 0 47.012029 20.734563 47.012029 47.012029v315.329591zM102.646351 409.558941H67.951885v-68.157177H102.646351v68.157177zM923.817161 93.202887c0-51.323176-41.674419-93.202887-93.408179-93.202887h-634.354451C144.32077 0 102.646351 41.469126 102.646351 93.202887v133.440257c0 25.456295-20.734563 46.190858-46.396151 46.190858h-9.648757c-25.866881 0-46.601443 20.939856-46.601443 47.217321v610.335205c0 51.528468 41.469126 93.613472 92.997594 93.613472h840.673617c51.323176 0 92.997594-41.469126 92.997594-93.613472V320.051323c0-25.866881-20.734563-47.012029-46.396151-47.012029h-9.648757c-25.661588 0-46.396151-20.52927-46.39615-46.190858l-0.410586-133.645549z" p-id="3465"></path></svg>