<?xml version="1.0" encoding="utf-8"?>
<!-- Generator: Adobe Illustrator 22.1.0, SVG Export Plug-In . SVG Version: 6.00 Build 0)  -->
<svg version="1.1" id="图层_1" xmlns="http://www.w3.org/2000/svg" xmlns:xlink="http://www.w3.org/1999/xlink" x="0px" y="0px"
	 viewBox="0 0 815.2 815.2" style="enable-background:new 0 0 815.2 815.2;" xml:space="preserve">
<style type="text/css">
	.st0{fill:#FFFFFF;}
</style>
<g>
	<path class="st0" d="M641.2,0H174C76.9,0,0,78.9,0,174v467.2c0,97.1,78.9,174,174,174h467.2c97.1,0,174-78.9,174-174V174
		C815.2,76.9,736.3,0,641.2,0L641.2,0z M641.2,232.6L349.9,582.5l-117.3-174l-174,174V232.6c0-97.1,78.9-174,174-174h349.9
		c97.1,0,176,78.9,176,174H641.2z M260.9,174c-48.5,0-87,38.4-87,87c0,48.5,38.4,87,87,87c48.5,0,87-38.4,87-87
		C347.9,214.4,309.5,174,260.9,174L260.9,174z M260.9,174"/>
</g>
</svg>
