<?xml version="1.0" encoding="utf-8"?>
<!-- Generator: Adobe Illustrator 22.1.0, SVG Export Plug-In . SVG Version: 6.00 Build 0)  -->
<svg version="1.1" id="图层_1" xmlns="http://www.w3.org/2000/svg" xmlns:xlink="http://www.w3.org/1999/xlink" x="0px" y="0px"
	 viewBox="0 0 40 40" style="enable-background:new 0 0 40 40;" xml:space="preserve">
<style type="text/css">

</style>
<g>
	<g>
		<defs>
			<rect id="SVGID_1_" x="0" width="40" height="40"/>
		</defs>
		<clipPath id="SVGID_2_">
			<use xlink:href="#SVGID_1_"  style="overflow:visible;"/>
		</clipPath>
		<path class="st0" d="M33,1.6H7.1c-1.9,0-3.7,0.7-5,2C0.8,4.9,0,6.7,0,8.6v22.8c0,3.9,3.1,7,7,7h25.9c3.9,0,7-3.1,7.1-7V8.6
			C40,4.7,36.9,1.6,33,1.6L33,1.6z M7.1,4.2H33c2.4,0,4.3,2,4.3,4.3v18.7H2.7V8.6c0-1.2,0.5-2.3,1.3-3.1C4.8,4.7,6,4.2,7.1,4.2
			L7.1,4.2z M33,35.7H7.1c-1.2,0-2.3-0.4-3.1-1.2c-0.8-0.8-1.3-1.9-1.3-3.1v-1.3h34.6v1.3C37.3,33.8,35.4,35.7,33,35.7L33,35.7z
			 M33,35.7"/>
	</g>
	<path class="st1" d="M19.8,22.9c6.3,0,11.4-5.1,11.5-11.5c0-0.7-0.6-1.3-1.3-1.3c-0.7,0-1.3,0.6-1.3,1.3c0,4.9-3.9,8.8-8.8,8.8
		c-4.9,0-8.8-3.9-8.8-8.8c0-0.7-0.6-1.3-1.3-1.3c-0.7,0-1.3,0.6-1.3,1.3C8.4,17.7,13.5,22.9,19.8,22.9L19.8,22.9z M19.8,22.9"/>
</g>
</svg>
