<?xml version="1.0" encoding="utf-8"?>
<!-- Generator: Adobe Illustrator 22.1.0, SVG Export Plug-In . SVG Version: 6.00 Build 0)  -->
<svg version="1.1" id="图层_1" xmlns="http://www.w3.org/2000/svg" xmlns:xlink="http://www.w3.org/1999/xlink" x="0px" y="0px"
	 viewBox="0 0 820 820.7" style="enable-background:new 0 0 820 820.7;" xml:space="preserve">
<style type="text/css">
	.st0{fill:#FF4602;}
	.st1{fill:#44B99B;}
	.st2{fill:none;}
</style>
<g>
	<path class="st0" d="M409.6,60.5c47.5,0,93.4,9.2,136.5,27.4c41.6,17.5,79,42.7,111,74.7s57.2,69.4,74.7,111
		c18.2,43.1,27.4,89,27.4,136.5c0,47.5-9.2,93.4-27.4,136.5c-17.5,41.6-42.7,79-74.7,111c-32,32-69.4,57.2-111,74.7
		c-43.1,18.2-89,27.4-136.5,27.4c-47.5,0-93.4-9.2-136.5-27.4c-41.6-17.5-79-42.7-111-74.7c-32-32-57.2-69.4-74.7-111
		C69.2,503.5,60,457.6,60,410.1c0-47.5,9.2-93.4,27.4-136.5c17.5-41.6,42.7-79,74.7-111c32-32,69.4-57.2,111-74.7
		C316.2,69.7,362.2,60.5,409.6,60.5 M409.6,0.5C182.6,0.5,0,183.1,0,410.1c0,227,182.6,409.6,409.6,409.6
		c227,0,409.6-182.6,409.6-409.6C819.2,183.1,636.6,0.5,409.6,0.5L409.6,0.5z"/>
</g>
<path class="st0" d="M624.6,312.8l-215,254.3c-10.2,11.9-23.9,18.8-39.3,20.5h-5.1c-13.7,0-25.6-5.1-35.8-13.7l-5.1-5.1L215,439.1
	c-15.4-18.8-11.9-44.4,5.1-59.7c18.8-15.4,44.4-11.9,59.7,5.1l85.3,102.4l192.9-228.7c15.4-18.8,42.7-20.5,59.7-5.1
	C638.3,268.5,640,294.1,624.6,312.8L624.6,312.8z"/>
<path class="st1" d="M624.6,312.8"/>
<rect x="0.1" class="st2" width="819.8" height="820.7"/>
</svg>
