<?xml version="1.0" encoding="utf-8"?>
<!-- Generator: Adobe Illustrator 22.1.0, SVG Export Plug-In . SVG Version: 6.00 Build 0)  -->
<svg version="1.1" id="图层_1" xmlns="http://www.w3.org/2000/svg" xmlns:xlink="http://www.w3.org/1999/xlink" x="0px" y="0px"
	 viewBox="0 0 591.8 543.8" style="enable-background:new 0 0 591.8 543.8;" xml:space="preserve">
<style type="text/css">
	.st0{clip-path:url(#SVGID_2_);fill:#FF4602;}
	.st1{fill:#FF4602;}
</style>
<g>
	<g>
		<g>
			<defs>
				<rect id="SVGID_1_" y="0" width="591.8" height="543.8"/>
			</defs>
			<clipPath id="SVGID_2_">
				<use xlink:href="#SVGID_1_"  style="overflow:visible;"/>
			</clipPath>
			<path class="st0" d="M541,73.1H432.5V24.6c0-13.8-10.5-24.3-24.3-24.3s-24.3,10.5-24.3,24.3v48.6H205.7V24.6
				c0-13.8-10.5-24.3-24.3-24.3s-24.3,10.5-24.3,24.3v48.6H49.4c-13.1-0.1-25.7,5.1-35,14.4s-14.5,21.9-14.4,35v370.9
				c-0.1,13.1,5.1,25.7,14.4,35s21.9,14.5,35,14.4h492.4c13.1,0.1,25.7-5.1,35-14.4c9.3-9.3,14.5-21.9,14.4-35V122.6
				C590.4,95,568.5,73.1,541,73.1L541,73.1z M541.8,493.5c0,0.8,0,0.8-0.8,0.8H49.4c-0.8,0-0.8,0-0.8-0.8V122.6c0-0.8,0-0.8,0.8-0.8
				h107.7v40.5c0,13.8,10.5,24.3,24.3,24.3s24.3-10.5,24.3-24.3v-40.5h178.2v40.5c0,13.8,10.5,24.3,24.3,24.3s24.3-10.5,24.3-24.3
				v-40.5H541c0.8,0,0.8,0,0.8,0.8V493.5z"/>
		</g>
	</g>
	<path class="st1" d="M268.9,429.5c-7.6,0.1-14.9-2.8-20.3-8.1l-85-85c-11.3-11.3-11.3-29.2,0-39.7c5.3-5.4,12.6-8.5,20.2-8.5
		c7.6,0,14.9,3.1,20.3,8.5l64.8,64.8L386.3,244c11.3-11.3,29.2-11.3,39.7,0c11.3,11.3,11.3,29.2,0,39.7L288.3,421.4
		C283.1,426.5,276.1,429.4,268.9,429.5L268.9,429.5z"/>
</g>
</svg>
