<?xml version="1.0" encoding="utf-8"?>
<!-- Generator: Adobe Illustrator 22.1.0, SVG Export Plug-In . SVG Version: 6.00 Build 0)  -->
<svg version="1.1" id="图层_1" xmlns="http://www.w3.org/2000/svg" xmlns:xlink="http://www.w3.org/1999/xlink" x="0px" y="0px"
	 viewBox="0 0 697 696.2" style="enable-background:new 0 0 697 696.2;" xml:space="preserve">
<style type="text/css">
	.st0{clip-path:url(#SVGID_2_);fill:#E94A1A;}
</style>
<g>
	<g>
		<defs>
			<rect id="SVGID_1_" y="1.2" width="697" height="694.8"/>
		</defs>
		<clipPath id="SVGID_2_">
			<use xlink:href="#SVGID_1_"  style="overflow:visible;"/>
		</clipPath>
		<path class="st0" d="M668.8,213c-17.5-41.3-42.6-78.4-74.6-110.3c-32-31.8-69.2-56.9-110.6-74.3C440.7,10.3,395.1,1.2,348.1,1.2
			c-47,0-92.6,9.2-135.5,27.3c-41.4,17.5-78.7,42.5-110.6,74.3c-32,31.9-57.1,69-74.6,110.3C9.2,255.8,0,301.3,0,348.1
			c0,46.8,9.2,92.3,27.4,135.1C44.9,524.5,70,561.6,102,593.4c32,31.8,69.2,56.9,110.6,74.3c42.9,18.1,88.5,27.3,135.5,27.3
			c60.6,0,120.2-15.8,172.5-45.5c9.8-5.6,13.3-18.1,7.7-27.9c-5.6-9.8-18.1-13.2-27.9-7.6c-46.1,26.3-98.8,40.2-152.3,40.2
			c-169.4,0-307.2-137.3-307.2-306c0-168.7,137.8-306,307.2-306c169.4,0,307.2,137.3,307.2,306c0,57.5-16.1,113.6-46.6,162.1
			c-6,9.6-3.1,22.2,6.4,28.2c9.6,6,22.2,3.1,28.2-6.4c34.6-55,52.9-118.6,52.9-183.9C696.2,301.3,687,255.8,668.8,213L668.8,213z
			 M398.6,192c0-24.1-19.6-43.7-43.7-43.7c-24.1,0-43.7,19.6-43.7,43.7c0,24.1,19.6,43.7,43.7,43.7C379,235.6,398.6,216.1,398.6,192
			L398.6,192z M306.8,541.1c4.6,4.5,10.8,6.9,17,6.9c2,0,3.9-0.2,5.9-0.7l74.7-18.4c13.2-3.2,21.2-16.5,18-29.7
			c-3.2-13.2-16.5-21.2-29.7-18l-37,9.1l38-185.9c1.7-8.3-1-16.9-7.1-22.7c-6.1-5.8-14.8-8.1-23-6l-72.1,18.5
			c-13.1,3.4-21.1,16.7-17.7,29.9s16.8,21.1,29.9,17.7l34-8.7l-38,185.5C298.1,526.7,300.8,535.2,306.8,541.1L306.8,541.1z
			 M306.8,541.1"/>
		<path class="st0" d="M483.2,668.8c41.3-17.5,78.4-42.6,110.3-74.6c31.8-32,56.9-69.2,74.3-110.6c18.1-42.9,27.3-88.5,27.3-135.5
			c0-47-9.2-92.6-27.3-135.5c-17.5-41.4-42.5-78.7-74.3-110.6c-31.9-32-69-57.1-110.3-74.6C440.4,9.2,394.9,0,348.1,0
			C301.3,0,255.8,9.2,213,27.4C171.7,44.9,134.6,70,102.8,102c-31.8,32-56.9,69.2-74.3,110.6C10.3,255.5,1.2,301.1,1.2,348.1
			c0,60.6,15.8,120.2,45.5,172.5c5.6,9.8,18.1,13.3,27.9,7.7c9.8-5.6,13.2-18.1,7.6-27.9C56,454.2,42.1,401.6,42.1,348.1
			c0-169.4,137.3-307.2,306-307.2c168.7,0,306,137.8,306,307.2c0,169.4-137.3,307.2-306,307.2c-57.5,0-113.6-16.1-162.1-46.6
			c-9.6-6-22.2-3.1-28.2,6.4c-6,9.6-3.1,22.2,6.4,28.2c55,34.6,118.6,52.9,183.9,52.9C394.9,696.2,440.4,687,483.2,668.8
			L483.2,668.8z M155.1,306.8"/>
	</g>
</g>
</svg>
