<?xml version="1.0" encoding="utf-8"?>
<!-- Generator: Adobe Illustrator 22.1.0, SVG Export Plug-In . SVG Version: 6.00 Build 0)  -->
<svg version="1.1" id="图层_1" xmlns="http://www.w3.org/2000/svg" xmlns:xlink="http://www.w3.org/1999/xlink" x="0px" y="0px"
	 viewBox="0 0 594.4 553.1" style="enable-background:new 0 0 594.4 553.1;" xml:space="preserve">
<style type="text/css">
	.st0{fill:url(#SVGID_1_);}
	.st1{fill:url(#SVGID_2_);}
	.st2{fill:url(#SVGID_3_);}
</style>
<g>
	<linearGradient id="SVGID_1_" gradientUnits="userSpaceOnUse" x1="0" y1="258.875" x2="481.25" y2="258.875">
		<stop  offset="0" style="stop-color:#FF9158"/>
		<stop  offset="0.8" style="stop-color:#FF644E"/>
	</linearGradient>
	<path class="st0" d="M224.2,446.1c-17.9-12.2-28.1-27-28.1-44.1c0-51.9,94.2-93.9,210.4-93.9c26.3,0,51.5,2.2,74.7,6.1V45
		c0-24.8-20.2-45-45-45H45C20.2,0,0,20.2,0,45v427.8c0,24.8,20.2,45,45,45h159c-5.2-7.6-7.9-15.9-7.9-24.8
		C196.1,475.9,206.3,459.9,224.2,446.1z M87.7,135h294.2c7,0,12.6,5.7,12.6,12.6s-5.7,12.6-12.6,12.6H87.7c-7,0-12.6-5.7-12.6-12.6
		S80.8,135,87.7,135z M87.7,238h294.2c7,0,12.6,5.7,12.6,12.6s-5.7,12.6-12.6,12.6H87.7c-7,0-12.6-5.7-12.6-12.6S80.8,238,87.7,238z
		 M141.4,366.3H87.7c-7,0-12.6-5.7-12.6-12.6S80.8,341,87.7,341h53.7c7,0,12.6,5.7,12.6,12.6S148.4,366.3,141.4,366.3z"/>
	<g>
		<linearGradient id="SVGID_2_" gradientUnits="userSpaceOnUse" x1="218.6528" y1="396.363" x2="594.4312" y2="396.363">
			<stop  offset="0" style="stop-color:#FF9158"/>
			<stop  offset="0.8" style="stop-color:#FF644E"/>
		</linearGradient>
		<path class="st1" d="M242.6,434.1c7,4,15.4,7.6,25,10.8c34.4,11.4,83.9,17.2,138.9,17.2c26.6,0,51.8-1.4,74.7-4
			c5.1-0.6,10.1-1.3,15-2c5.2-0.8,10.2-1.6,15-2.5c12.6-2.4,24.1-5.3,34.2-8.6c9.6-3.2,18-6.8,25-10.8c15.2-8.7,23.9-19.5,23.9-32.1
			c0-24.7-33-46.5-83.2-59.3c-4.8-1.2-9.8-2.4-15-3.5c-4.9-1-9.9-1.9-15-2.8c-22.9-3.8-48.2-5.9-74.7-5.9
			c-103.8,0-187.9,32-187.9,71.4C218.7,414.7,227.3,425.4,242.6,434.1z"/>
		<linearGradient id="SVGID_3_" gradientUnits="userSpaceOnUse" x1="218.6528" y1="505.1259" x2="594.4312" y2="505.1259">
			<stop  offset="0" style="stop-color:#FF9158"/>
			<stop  offset="0.8" style="stop-color:#FF644E"/>
		</linearGradient>
		<path class="st2" d="M569,457.1c-16.1,7.4-35.7,13.5-57.8,18c-4.9,1-10,1.9-15.2,2.8c-5,0.8-10.2,1.6-15.4,2.3
			c-23,3-48,4.5-74.1,4.5c-65.4,0-123.9-9.8-162.5-27.5c-16.2,10.5-25.4,22.8-25.4,35.9c0,9.3,4.7,17.6,13.2,24.8
			c6.7,5.7,15.8,10.7,26.9,15c16.8,6.6,38.2,11.6,62.6,15c25.6,3.6,54.5,5.4,85.2,5.4c103.8,0,187.9-20.7,187.9-60.1
			C594.4,479.9,585.2,467.7,569,457.1z"/>
	</g>
</g>
</svg>
