<?xml version="1.0" standalone="no"?><!DOCTYPE svg PUBLIC "-//W3C//DTD SVG 1.1//EN" "http://www.w3.org/Graphics/SVG/1.1/DTD/svg11.dtd"><svg t="1542335323630" class="icon" style="" viewBox="0 0 1024 1024" version="1.1" xmlns="http://www.w3.org/2000/svg" p-id="1833" xmlns:xlink="http://www.w3.org/1999/xlink" width="200" height="200"><defs><style type="text/css"></style></defs><path d="M793.6 972.8a25.4464 25.4464 0 0 1-12.2368-3.1232L512 822.784l-269.3632 146.8928a25.5488 25.5488 0 0 1-37.4784-26.7264l49.0496-294.1952-195.4816-195.4816a25.6512 25.6512 0 0 1 13.8752-43.3664l294.3488-49.0496 122.1632-244.3264a25.6 25.6 0 0 1 45.7728 0l122.1632 244.3264 294.3488 49.0496a25.6 25.6 0 0 1 13.8752 43.3664l-195.4816 195.4816 49.0496 294.1952A25.7536 25.7536 0 0 1 793.6 972.8zM512 768c4.1984 0 8.448 1.024 12.2368 3.1232l235.4688 128.4096-42.5472-255.3344a25.4464 25.4464 0 0 1 7.168-22.3232l169.6256-169.6256-258.1504-43.008a25.6 25.6 0 0 1-18.688-13.824L512 185.1904 406.8864 395.4176a25.7536 25.7536 0 0 1-18.688 13.824l-258.1504 43.008 169.6256 169.6256a25.7024 25.7024 0 0 1 7.168 22.3232l-42.5472 255.3344 235.4688-128.4096A25.4464 25.4464 0 0 1 512 768z" fill="" p-id="1834"></path></svg>