<?xml version="1.0" standalone="no"?><!DOCTYPE svg PUBLIC "-//W3C//DTD SVG 1.1//EN" "http://www.w3.org/Graphics/SVG/1.1/DTD/svg11.dtd"><svg t="1541663790753" class="icon" style="" viewBox="0 0 1331 1024" version="1.1" xmlns="http://www.w3.org/2000/svg" p-id="864" xmlns:xlink="http://www.w3.org/1999/xlink" width="62.390625" height="48"><defs><style type="text/css"></style></defs><path d="M1124.180434 631.276704l-80.184339 299.341535H278.545597l-49.590315-195.961727c29.794181-31.79379 76.18512-52.589729 157.969147-43.391525 179.564929 20.795938 258.949424 69.986331 430.715876 19.196251 123.975786-36.792814 188.763132-76.785003 306.540129-79.184534z m0 0" fill="#FFFFFF" p-id="865"></path><path d="M1048.995118 985.607499H280.145284c-10.59793 0-19.196251 8.598321-19.196251 19.19625s8.598321 19.196251 19.196251 19.196251h768.849834c6.798672 0 13.197422-3.599297 16.596759-9.598125 3.399336-5.998828 3.399336-13.197422 0-19.196251s-9.798086-9.598125-16.596759-9.598125z m276.545987-753.252881c-11.397774-34.593244-40.19215-60.588166-75.785198-68.186682-6.998633-1.399727-13.997266-2.19957-21.19586-2.399531-56.588947 0-102.380004 45.791056-102.380004 102.380004-0.199961 33.393478 15.996876 64.787346 43.391525 83.983596l-238.953329 217.957431-238.95333-365.128686c21.395821-6.39875 40.392111-19.396212 53.989455-37.192736 20.995899-27.794571 26.394845-64.587385 14.197227-97.38098-11.997657-32.593634-40.19215-56.988869-74.18551-64.387425-6.798672-1.199766-13.797305-1.999609-20.795938-1.999609-56.588947 0-102.380004 45.791056-102.380004 102.380004 0 45.591095 30.194103 85.583285 73.985549 98.380785l-226.35579 383.925015L156.56942 343.332943c10.198008-6.598711 18.99629-14.997071 26.194884-24.595196 20.196055-26.594806 26.194884-61.38801 15.996875-93.181801-11.397774-34.593244-40.19215-60.588166-75.785198-68.186682-6.798672-1.199766-13.797305-1.999609-20.795938-1.99961C45.791056 155.369654 0 201.160711 0 257.749658c0 56.588947 45.791056 102.380004 102.380004 102.380004 3.999219 0.399922 8.198399 0.399922 12.197618 0l144.371802 575.287639c2.399531 8.39836 9.998047 14.397188 18.796329 14.397188H1043.796134c8.598321 0 16.196837-5.798867 18.396407-13.997266l152.170279-570.888498c4.799063 0.999805 9.598125 1.599688 14.397188 1.799648 32.793595-0.199961 63.38762-15.796915 82.58387-42.39172 19.196251-26.594806 24.595196-60.588166 14.397188-91.782074h-0.199961zM38.192541 256.949814c-0.399922-16.99668 5.998828-33.593439 17.996485-45.591095 11.997657-12.197618 28.394454-18.796329 45.391134-18.596368 4.599102-0.399922 9.198203-0.399922 13.597344 0 21.995704 5.198985 39.392306 21.19586 46.590901 42.39172 8.198399 23.795352 1.399727 50.190197-17.196642 67.186878-18.596368 16.99668-45.391135 21.595782-68.586604 11.397774-22.995509-10.198008-37.99258-32.993556-37.992579-58.188635v1.399726zM600.282757 101.980082c-0.399922-16.99668 5.998828-33.593439 17.996485-45.591095 11.997657-12.197618 28.394454-18.796329 45.391135-18.596368 4.599102-0.399922 9.198203-0.399922 13.597344 0 21.795743 5.198985 39.392306 21.19586 46.390939 42.39172 6.198789 19.396212 2.999414 40.792033-8.798281 57.388791-11.797696 16.796719-30.793986 26.794767-51.190002 27.594611-34.593244-0.399922-62.787737-28.394454-63.38762-63.187659z m429.916032 809.641867H293.142746l-127.975005-507.100957 236.153876 224.556141c4.19918 3.999219 9.998047 5.598906 15.796915 4.799063 5.798867-0.599883 10.797891-3.999219 13.597344-9.198203l233.754345-395.52275 246.351884 375.326694c3.199375 4.599102 8.198399 7.598516 13.597344 8.198399 5.398946 0.599883 10.997852-0.999805 14.997071-4.799063l224.556142-204.760008-133.773873 508.500684zM1279.150166 301.941027c-16.196837 22.195665-44.791252 31.393868-70.786175 22.795548-25.994923-8.798282-43.391525-33.393478-42.791642-60.988088-0.399922-16.99668 5.998828-33.393478 17.996485-45.591096 11.997657-12.197618 28.194493-18.796329 45.191174-18.596368 4.799063 0 9.398164 0.599883 13.997266 1.799649 20.995899 4.799063 38.192541 19.996095 45.591095 40.392111 7.198594 20.396016 3.799258 42.991603-9.198203 60.188244z m0 0" fill="#FFFFFF" p-id="866"></path></svg>