<?xml version="1.0" standalone="no"?><!DOCTYPE svg PUBLIC "-//W3C//DTD SVG 1.1//EN" "http://www.w3.org/Graphics/SVG/1.1/DTD/svg11.dtd"><svg t="1541658097793" class="icon" style="" viewBox="0 0 1091 1024" version="1.1" xmlns="http://www.w3.org/2000/svg" p-id="2470" xmlns:xlink="http://www.w3.org/1999/xlink" width="213.0859375" height="200"><defs><style type="text/css">.icon{fill: #E8541E}</style></defs><path d="M1060.746852 298.730617c-5.72067-6.557842-19.115411-22.464096-36.556479-43.114321-52.602262-62.648317-140.923832-167.294727-181.666167-211.664804C825.78078 25.533724 804.71197 2.790571 764.248691 1.116228c-2.930099-0.139529-11.859926-0.418586-125.296634-0.418585C510.167209 0.697643 327.942928 1.116228 327.942928 1.116228c-19.254939 0-48.695463 4.464913-81.205614 42.835264-23.859381 28.184766-60.555389 71.438616-97.94904 115.111051-47.439706 55.811418-95.716583 112.180951-118.459735 139.668074-39.486579 46.463006-40.463278 111.064723-2.651043 168.829541l2.511514 3.348685c44.788663 52.74179 141.900531 166.03897 256.732525 299.986374l178.457011 208.037063c32.928737 38.509879 59.020575 43.672435 80.089385 43.672435 22.185039 0 47.160649-5.302085 80.089385-43.672435l184.735796-215.292547c108.553209-126.552391 200.502521-233.710315 251.011854-293.289004 33.62638-41.021393 43.114321-118.180679-0.558114-171.620112z m-198.828178 111.064723H859.546688c-19.254939 0-26.370895 5.162556-34.324022 15.906254-0.837171 1.116228-1.674343 2.232457-2.790571 3.627742-38.509879 52.74179-167.294727 212.781033-239.989099 305.986102-9.069355 11.580869-22.882682 18.27824-37.393651 18.27824s-28.324295-6.69737-37.39365-18.27824c-72.554844-93.344597-201.479221-253.104783-239.430985-305.288459-1.813871-2.232457-2.790571-3.488214-3.488214-4.604442-7.953127-10.60417-15.069083-15.766726-34.463551-15.766726h-2.371985c0-26.510424 21.208339-47.858291 47.439706-47.858291h54.555661c2.930099 0 3.627742 0 5.720671 3.348685l171.201526 223.385203c9.069355 11.720398 22.882682 18.557297 37.533179 18.557296s28.463823-6.836899 37.533179-18.557296l171.480583-222.548032c2.651042-4.185856 3.488214-4.185856 6.418313-4.185856h53.997547c26.789481 0.139529 48.137348 21.487396 48.137349 47.99782z" p-id="2471"></path></svg>