<?xml version="1.0" encoding="utf-8"?>
<!-- Generator: Adobe Illustrator 22.1.0, SVG Export Plug-In . SVG Version: 6.00 Build 0)  -->
<svg version="1.1" id="图层_1" xmlns="http://www.w3.org/2000/svg" xmlns:xlink="http://www.w3.org/1999/xlink" x="0px" y="0px"
	 viewBox="0 0 737.9 491.8" style="enable-background:new 0 0 737.9 491.8;" xml:space="preserve">
<style type="text/css">
	.st0{clip-path:url(#SVGID_2_);}
</style>
<g>
	<defs>
		<rect id="SVGID_1_" width="737.9" height="491.8"/>
	</defs>
	<clipPath id="SVGID_2_">
		<use xlink:href="#SVGID_1_"  style="overflow:visible;"/>
	</clipPath>
	<path class="st0" d="M719.9,81c5.9,3.2,10.3,7.4,13.2,12.9c2.9,5.5,4.4,11,4.4,16.5c0,5.5-1.5,10.6-4.4,15.3
		c-2.9,4.7-7,8.1-12.4,10.2c-5.9,2.1-10.2,5.1-12.8,9.1c-2.6,3.9-4.1,8.3-4.4,12.9c-0.3,4.7,0.8,9.2,3.2,13.8
		c2.3,4.4,6.3,8.3,11.6,11.4c5.4,3.2,9.2,7.3,11.6,12.5c2.3,5.2,3.4,10.5,3.2,15.7c-0.3,5.2-1.7,10-4,14.6
		c-2.3,4.4-6.1,6.9-10.7,7.4c-4.3,1.1-7.3,3.3-9.2,6.7c-1.9,3.4-2.8,7.2-2.8,11.4c0,4.1,1,8.3,2.8,12.1c1.9,4,5,6.7,9.2,8.3
		c4.3,1.5,7.6,4.7,10,9.4c2.3,4.7,3.7,9.6,4,14.9c0.3,5.2-0.4,10.2-1.9,14.9c-1.7,4.7-4,8.1-7.2,10.2c-10.7,6.3-16,13.3-16,21.2
		c0,7.8,5.4,15.7,16,23.5c2.1,1.5,4.1,4.4,6.1,8.7c1.9,4.1,2.8,8.4,2.8,12.5c0,4.1-1.1,7.8-3.2,11c-2.2,3.2-5.9,4.7-11.1,4.7h-43.2
		c-3.2,0-5-0.3-5.2-0.8c-0.3-0.6,0.1-1.4,1.2-2.8c1.2-1.5,2.6-3,4-4.3c1.7-1.5,2.9-3.4,4-5.5c2.6-7.3,2.6-13.6,0-18.9
		c-2.8-5.2-7.2-9.6-13.6-13.3c-4.3-2.1-7.3-5.4-9.2-9.8c-1.9-4.4-2.6-9.1-2.5-13.8c0.3-4.7,1.2-8.9,2.8-12.5c1.7-3.7,4-6.3,7.2-7.8
		c4.3-1.5,7.4-4.4,9.6-8.7c2.1-4.1,3.2-8.7,3.2-13.3c0-4.7-0.8-9.1-2.3-12.9c-1.6-4-4-6.6-7.2-8.3c-4.3-2.1-7.6-5.2-10-9.4
		c-2.3-4.1-3.6-8.9-3.6-14.2c0-5.2,1.1-10.3,3.2-15.3c2.1-5,5.6-9.1,10.5-12.1c3.2-2.1,5.9-5,8-8.7c2.2-3.7,3.3-7.6,3.6-11.8
		c0.3-4.1-0.6-8.3-2.3-12.1c-1.9-4-5.2-7.2-10-9.8c-5.4-2.6-9.2-6.5-11.6-11.4c-2.5-5-3.6-10-3.6-15.3c0-5.2,1.2-10.2,3.6-14.9
		c2.3-4.7,5.8-8.4,10-11c9.1-4.7,14-11.1,14.9-19.3c0.8-8.1,0.1-15.6-2.1-22.4c-1.7-5.2-4.8-9.9-9.6-14.2
		c-4.8-4.1-10.9-6.3-18.4-6.3H264.8V-0.1h450.4c3.7,0,6.9,1.4,9.6,3.9c2.6,2.6,4.4,5.8,5.2,9.5c0.8,3.7,0.6,7.4-0.8,11.4
		c-1.4,3.9-3.9,7.2-7.6,9.8c-3.2,2.6-6.1,6.1-8.4,10.2c-2.3,4.1-3.7,8.5-4,12.9c-0.3,4.4,0.4,8.9,2.1,13.3
		C712.7,75.6,715.6,78.9,719.9,81L719.9,81z"/>
	<path class="st0" d="M66.3,42.6c0-10.5,4.1-20.1,12.4-29C87,4.6,95.9,0.2,105.6,0.2h110.4V63H66.3L66.3,42.6L66.3,42.6z"/>
	<path class="st0" d="M141.6,490.8h-44c-11.7,0-23.4-0.1-34.8-0.4c-11.4-0.3-19.3-0.4-23.5-0.4c-14.4,0.6-24.5-1.8-30.4-7
		C2.9,477.7,0,467.8,0,453.1v-113c0-5.8,1-10,2.8-12.9c1.9-2.9,5.8-4.8,11.6-5.9c2.2,0,5.1-0.8,8.8-2.3c3.7-1.5,7.4-4,11.1-7.4
		c3.7-3.4,6.9-7.8,9.6-13.3c2.6-5.5,4-12.1,4-20c0-12.1-3.3-21.5-10-28.2c-6.6-6.9-13.8-10.7-21.2-11.8c-5.9-1.1-10.2-2.8-12.8-5.1
		c-2.6-2.3-4-6.5-4-12.1v-83.3c0-14.2,2.3-24.2,7.2-30.3c4.8-6.1,15.4-9.1,31.9-9.1h102.4v392.5H141.6z"/>
	<path class="st0" d="M615,314.1c4.3-2.2,7.6-5.4,9.6-9.5c2.1-4.1,3-8.7,2.7-13.3c-0.3-4.7-1.8-9.2-4.4-13.4
		c-2.6-4.1-6.6-7.3-12-9.4c-5.9-2.1-10.3-5.5-13.2-10.2c-2.9-4.7-4.3-9.5-4-14.2c0.3-4.7,2.2-9.4,5.6-13.8c3.6-4.5,8.5-7.6,14.9-9.1
		c5.2-1.6,9.2-4.3,11.6-8.3c2.3-3.9,3.4-8.1,3.2-12.5c-0.3-4.4-1.9-8.8-4.8-12.9c-2.9-4.1-6.7-7.3-11.6-9.4
		c-6.5-2.1-11-5.1-13.6-9.4c-2.6-4.1-3.7-8.5-3.2-12.9c0.5-4.4,2.3-8.4,5.2-12.1c2.9-3.7,6.7-6.3,11.6-7.8c4.8-1.7,8.4-4.5,10.5-8.7
		c2.1-4.1,3-8.4,2.8-12.5c-0.3-4.3-1.6-8-4-11.4c-2.3-3.4-5.8-5.1-9.9-5.1H188.8v392.5h418.3c4.3,0,7.7-1.7,10-5.1
		c2.3-3.4,3.9-7.3,4.4-11.4c0.4-4.1-0.1-8.5-2.1-12.9c-1.9-4.4-5-7.7-9.2-9.8c-6.5-3.2-11.1-7.2-14-11.8c-2.9-4.8-4.3-9.5-4-14.2
		c0.3-4.7,2.2-9.2,5.6-13.4c3.6-4.3,8.4-7.2,14.9-8.7c4.7-1.7,8.3-4.4,10.3-8.3c2.1-4,3-8.4,2.8-13.3c-0.3-5-1.9-9.8-4.8-14.2
		c-2.9-4.4-6.7-7.7-11.6-9.8c-10.7-5.2-15.8-12.2-15.3-21.2C594.8,328,601.7,320.4,615,314.1z M489.2,283.2v26.1h-63.8v36h63.8v26.5
		h-63.8v52.4h-32.8v-52.4h-66.2v-26.5h66.2v-36h-66.2v-26.1h56.5l-52.6-75.1c-6.8-9.8,0.1-23.2,12.1-23.2h0c5.3,0,10.2,2.9,12.9,7.5
		c29.7,52.7,47.8,69.2,54.5,84.2h0.7c2-5.5,42.2-66.7,54.9-86c2.4-3.6,6.4-5.8,10.7-5.8h3.4c10.4,0,16.4,11.7,10.4,20.2l-55.3,78.1
		H489.2z"/>
	<path class="st0" d="M306.2,277.8"/>
</g>
</svg>
