<?xml version="1.0" standalone="no"?><!DOCTYPE svg PUBLIC "-//W3C//DTD SVG 1.1//EN" "http://www.w3.org/Graphics/SVG/1.1/DTD/svg11.dtd"><svg t="1541388934549" class="icon" style="" viewBox="0 0 1024 1024" version="1.1" xmlns="http://www.w3.org/2000/svg" p-id="2910" xmlns:xlink="http://www.w3.org/1999/xlink" width="64" height="64"><defs><style type="text/css"></style></defs><path d="M42.666667 341.333333c-23.466667 0-42.666667-19.2-42.666667-42.666666V106.666667c0-59.733333 46.933333-106.666667 106.666667-106.666667h192c23.466667 0 42.666667 19.2 42.666666 42.666667s-19.2 42.666667-42.666666 42.666666H106.666667c-10.666667 0-21.333333 10.666667-21.333334 21.333334v192c0 23.466667-19.2 42.666667-42.666666 42.666666zM981.333333 341.333333c-23.466667 0-42.666667-19.2-42.666666-42.666666V106.666667c0-10.666667-10.666667-21.333333-21.333334-21.333334h-192c-23.466667 0-42.666667-19.2-42.666666-42.666666s19.2-42.666667 42.666666-42.666667h192c59.733333 0 106.666667 46.933333 106.666667 106.666667v192c0 23.466667-19.2 42.666667-42.666667 42.666666zM917.333333 1024h-192c-23.466667 0-42.666667-19.2-42.666666-42.666667s19.2-42.666667 42.666666-42.666666h192c10.666667 0 21.333333-10.666667 21.333334-21.333334v-192c0-23.466667 19.2-42.666667 42.666666-42.666666s42.666667 19.2 42.666667 42.666666v192c0 59.733333-46.933333 106.666667-106.666667 106.666667zM298.666667 1024H106.666667c-59.733333 0-106.666667-46.933333-106.666667-106.666667v-192c0-23.466667 19.2-42.666667 42.666667-42.666666s42.666667 19.2 42.666666 42.666666v192c0 10.666667 10.666667 21.333333 21.333334 21.333334h192c23.466667 0 42.666667 19.2 42.666666 42.666666s-19.2 42.666667-42.666666 42.666667z" p-id="2911" fill="#ffffff"></path><path d="M981.333333 565.333333H42.666667c-23.466667 0-42.666667-19.2-42.666667-42.666666s19.2-42.666667 42.666667-42.666667h938.666666c23.466667 0 42.666667 19.2 42.666667 42.666667s-19.2 42.666667-42.666667 42.666666z" p-id="2912" fill="#ffffff"></path></svg>