<?xml version="1.0" standalone="no"?><!DOCTYPE svg PUBLIC "-//W3C//DTD SVG 1.1//EN" "http://www.w3.org/Graphics/SVG/1.1/DTD/svg11.dtd"><svg t="1543991029558" class="icon" style="" viewBox="0 0 1024 1024" version="1.1" xmlns="http://www.w3.org/2000/svg" p-id="8956" xmlns:xlink="http://www.w3.org/1999/xlink" width="64" height="64"><defs><style type="text/css"></style></defs><path d="M462.5615232 152.02609229c-169.94476343 0-308.99047875 139.04571533-308.99047804 308.99047875s139.04571533 308.99047875 308.99047804 308.99047875 308.99047875-139.04571533 308.99047875-308.99047875c0-171.48971558-139.04571533-308.99047875-308.99047875-308.99047875z m-114.32647657 146.77047753c-7.7247622 3.08990502-13.90457153 6.17980933-20.08438158 10.81466651-6.17980933 4.63485718-12.35961937 9.26971435-18.53942872 15.4495244-4.63485718 4.63485718-10.81466651 10.81466651-13.90457153 16.99447584-4.63485718 6.17980933-7.7247622 13.90457153-10.81466651 20.08438158-3.08990502 6.17980933-9.26971435 9.26971435-15.44952369 6.17980934-6.17980933-3.08990502-9.26971435-9.26971435-6.17981004-15.44952369 3.08990502-7.7247622 7.7247622-16.99447656 13.90457153-24.71923875 4.63485718-7.7247622 10.81466651-15.44952368 16.99447656-21.62933303 6.17980933-6.17980933 13.90457153-12.35961937 21.62933373-16.99447655 7.7247622-4.63485718 15.44952368-9.26971435 24.71923804-13.90457154 6.17980933-3.08990502 13.90457153 0 15.44952369 6.17980934 1.54495216 7.7247622-1.54495216 13.90457153-7.72476148 16.99447655z m319.80514526 273.45657349c-7.7247622 16.99447656-16.99447656 32.44400024-30.89904809 46.34857177-13.90457153 13.90457153-29.35409522 24.71923805-46.34857178 30.8990481-16.99447656 7.7247622-35.53390526 10.81466651-55.61828613 10.81466651-6.17980933 0-12.35961937-6.17980933-12.35961938-12.35961938s4.63485718-12.35961937 12.35961938-12.35961867c15.44952368 0 30.89904809-3.08990502 46.34857177-9.26971435 13.90457153-6.17980933 27.80914307-13.90457153 38.62380958-26.26419091 12.35961937-10.81466651 20.08438087-24.71923805 26.26419091-38.62380958 6.17980933-13.90457153 9.26971435-30.89904809 9.26971436-46.34857178 0-6.17980933 6.17980933-12.35961937 12.35961938-12.35961937s12.35961937 6.17980933 12.35961866 12.35961937c-1.54495216 20.08438087-6.17980933 40.16876244-12.35961866 57.16323829z m188.48419142 219.38323951l-86.51733352-89.60723853c-9.26971435-9.26971435-20.08438087-13.90457153-32.44400024-13.90457153s-23.17428589 4.63485718-32.44400024 13.90457153c-18.53942872 18.53942872-18.53942872 47.89352393 0 66.43295264l86.51733351 89.60723924c9.26971435 9.26971435 20.08438087 13.90457153 32.44400024 13.90457154s23.17428589-4.63485718 32.44400025-13.90457154c18.53942872-18.53942872 18.53942872-47.89352393 0-66.43295335z" fill="#ffffff" p-id="8957"></path></svg>